<?xml version="1.0" encoding="utf-8"?>
<!-- Generator: Adobe Illustrator 27.8.1, SVG Export Plug-In . SVG Version: 6.00 Build 0)  -->
<svg version="1.1" id="Layer_1" xmlns="http://www.w3.org/2000/svg" xmlns:xlink="http://www.w3.org/1999/xlink" x="0px" y="0px"
	 viewBox="0 0 24 24" style="enable-background:new 0 0 24 24;" xml:space="preserve">
<style type="text/css">
	.st0{fill:#171512;}
</style>
<path class="st0" d="M4.6,19c-0.9,0-1.5-0.3-2-0.9c-0.5-0.6-0.6-1.3-0.5-2.2l1.1-7.5c0.1-1,0.6-1.8,1.3-2.5s1.6-1,2.6-1H17
	c1,0,1.9,0.3,2.6,1s1.2,1.5,1.3,2.5l1.1,7.5c0.1,0.8-0.1,1.6-0.5,2.2c-0.5,0.6-1.1,0.9-2,0.9c-0.4,0-0.7-0.1-1-0.2s-0.6-0.3-0.8-0.6
	L15.4,16H8.6l-2.3,2.2c-0.2,0.2-0.5,0.4-0.8,0.6S4.9,19,4.6,19z M5,16.9L7.8,14h8.4l2.9,2.9c0,0,0.2,0.1,0.4,0.1
	c0.2,0,0.3-0.1,0.4-0.2c0.1-0.1,0.1-0.3,0.1-0.4l-1.1-7.7c-0.1-0.5-0.3-0.9-0.6-1.2S17.5,7,17,7H7.1C6.6,7,6.1,7.2,5.8,7.5
	S5.2,8.2,5.1,8.7L4,16.4c0,0.2,0,0.3,0.1,0.4S4.4,17,4.6,17C4.6,17,4.7,17,5,16.9z M17,13c0.3,0,0.5-0.1,0.7-0.3
	c0.2-0.2,0.3-0.4,0.3-0.7s-0.1-0.5-0.3-0.7C17.5,11.1,17.3,11,17,11s-0.5,0.1-0.7,0.3S16,11.7,16,12s0.1,0.5,0.3,0.7S16.7,13,17,13z
	 M15,10c0.3,0,0.5-0.1,0.7-0.3C15.9,9.5,16,9.3,16,9s-0.1-0.5-0.3-0.7C15.5,8.1,15.3,8,15,8s-0.5,0.1-0.7,0.3C14.1,8.5,14,8.7,14,9
	s0.1,0.5,0.3,0.7C14.5,9.9,14.7,10,15,10z M7.8,13h1.5v-1.8H11V9.8H9.2V8H7.8v1.8H6v1.5h1.8V13z"/>
</svg>
