<?xml version="1.0" encoding="utf-8"?>
<!-- Generator: Adobe Illustrator 27.8.1, SVG Export Plug-In . SVG Version: 6.00 Build 0)  -->
<svg version="1.1" id="Layer_1" xmlns="http://www.w3.org/2000/svg" xmlns:xlink="http://www.w3.org/1999/xlink" x="0px" y="0px"
	 viewBox="0 0 24 24" style="enable-background:new 0 0 24 24;" xml:space="preserve">
<style type="text/css">
	.st0{fill:#171512;}
</style>
<path class="st0" d="M7,17h7v-2H7V17z M7,13h10v-2H7V13z M7,9h10V7H7V9z M5,21c-0.5,0-1-0.2-1.4-0.6S3,19.5,3,19V5
	c0-0.5,0.2-1,0.6-1.4S4.5,3,5,3h14c0.6,0,1,0.2,1.4,0.6S21,4.4,21,5v14c0,0.5-0.2,1-0.6,1.4S19.6,21,19,21H5z M5,19h14V5H5V19z M5,5
	v14V5z"/>
</svg>
