<?xml version="1.0" encoding="utf-8"?>
<!-- Generator: Adobe Illustrator 27.8.1, SVG Export Plug-In . SVG Version: 6.00 Build 0)  -->
<svg version="1.1" id="Layer_1" xmlns="http://www.w3.org/2000/svg" xmlns:xlink="http://www.w3.org/1999/xlink" x="0px" y="0px"
	 viewBox="0 0 24 24" style="enable-background:new 0 0 24 24;" xml:space="preserve">
<style type="text/css">
	.st0{fill:#171512;}
</style>
<path class="st0" d="M0,18v-1.6c0-0.7,0.4-1.3,1.1-1.7C1.8,14.2,2.8,14,4,14c0.2,0,0.4,0,0.6,0c0.2,0,0.4,0,0.6,0.1
	c-0.2,0.4-0.4,0.7-0.5,1.1c-0.1,0.4-0.2,0.8-0.2,1.2V18H0z M6,18v-1.6c0-0.5,0.1-1,0.4-1.5c0.3-0.4,0.7-0.8,1.2-1.2
	c0.5-0.3,1.2-0.6,1.9-0.8c0.7-0.2,1.5-0.2,2.4-0.2c0.9,0,1.7,0.1,2.4,0.2c0.7,0.2,1.4,0.4,1.9,0.8c0.5,0.3,0.9,0.7,1.2,1.2
	c0.3,0.4,0.4,0.9,0.4,1.5V18H6z M19.5,18v-1.6c0-0.4-0.1-0.8-0.2-1.2c-0.1-0.4-0.3-0.7-0.5-1.1c0.2,0,0.4-0.1,0.6-0.1s0.4,0,0.6,0
	c1.2,0,2.2,0.2,2.9,0.7c0.7,0.4,1.1,1,1.1,1.8V18H19.5z M8.1,16h7.8c-0.2-0.3-0.6-0.6-1.4-0.9c-0.8-0.2-1.6-0.4-2.5-0.4
	c-0.9,0-1.8,0.1-2.5,0.4S8.3,15.7,8.1,16z M4,13c-0.5,0-1-0.2-1.4-0.6S2,11.6,2,11c0-0.6,0.2-1,0.6-1.4S3.5,9,4,9
	c0.6,0,1,0.2,1.4,0.6S6,10.4,6,11c0,0.6-0.2,1-0.6,1.4S4.6,13,4,13z M20,13c-0.5,0-1-0.2-1.4-0.6C18.2,12,18,11.6,18,11
	c0-0.6,0.2-1,0.6-1.4C19,9.2,19.5,9,20,9c0.6,0,1,0.2,1.4,0.6C21.8,10,22,10.4,22,11c0,0.6-0.2,1-0.6,1.4C21,12.8,20.6,13,20,13z
	 M12,12c-0.8,0-1.5-0.3-2.1-0.9C9.3,10.5,9,9.8,9,9c0-0.9,0.3-1.6,0.9-2.1C10.5,6.3,11.2,6,12,6c0.9,0,1.6,0.3,2.1,0.9
	C14.7,7.4,15,8.1,15,9c0,0.8-0.3,1.5-0.9,2.1C13.6,11.7,12.9,12,12,12z M12,10c0.3,0,0.5-0.1,0.7-0.3C12.9,9.5,13,9.3,13,9
	s-0.1-0.5-0.3-0.7C12.5,8.1,12.3,8,12,8s-0.5,0.1-0.7,0.3C11.1,8.5,11,8.7,11,9s0.1,0.5,0.3,0.7C11.5,9.9,11.7,10,12,10z"/>
</svg>
