<?xml version="1.0" encoding="UTF-8"?>
<svg id="Layer_2" data-name="Layer 2" xmlns="http://www.w3.org/2000/svg" viewBox="0 0 606.88 606.88">
  <defs>
    <style>
      .cls-1 {
        fill: #e4e4e4;
      }

      .cls-1, .cls-2, .cls-3, .cls-4, .cls-5, .cls-6, .cls-7, .cls-8, .cls-9, .cls-10, .cls-11, .cls-12, .cls-13, .cls-14, .cls-15, .cls-16, .cls-17, .cls-18, .cls-19, .cls-20, .cls-21, .cls-22, .cls-23, .cls-24, .cls-25, .cls-26, .cls-27, .cls-28, .cls-29, .cls-30, .cls-31, .cls-32, .cls-33, .cls-34, .cls-35, .cls-36, .cls-37, .cls-38, .cls-39, .cls-40, .cls-41 {
        stroke-width: 0px;
      }

      .cls-2 {
        fill: #bdbdbd;
      }

      .cls-3 {
        fill: #dcdcdc;
      }

      .cls-4 {
        fill: #c8c8c8;
      }

      .cls-5 {
        fill: #ececec;
      }

      .cls-6 {
        fill: #e3e3e3;
      }

      .cls-7 {
        fill: #a7a7a7;
      }

      .cls-8 {
        fill: #c4c4c4;
      }

      .cls-9 {
        fill: #bbb;
      }

      .cls-10 {
        fill: #b7b7b7;
      }

      .cls-11 {
        fill: #f0f0f0;
      }

      .cls-12 {
        fill: none;
      }

      .cls-13 {
        fill: #ddd;
      }

      .cls-14 {
        fill: #c7c7c7;
      }

      .cls-15 {
        fill: #b3b3b3;
      }

      .cls-16 {
        fill: #ccc;
      }

      .cls-17 {
        fill: #bebebe;
      }

      .cls-18 {
        fill: #dadada;
      }

      .cls-19 {
        fill: #d4d4d4;
      }

      .cls-20 {
        fill: #b1b1b1;
      }

      .cls-21 {
        fill: #b0b0b0;
      }

      .cls-22 {
        fill: #dedede;
      }

      .cls-23 {
        fill: #e2e2e2;
      }

      .cls-24 {
        fill: #d3d3d3;
      }

      .cls-25 {
        fill: #cbcbcb;
      }

      .cls-26 {
        fill: #c3c3c3;
      }

      .cls-27 {
        fill: #a8a8a8;
      }

      .cls-28 {
        fill: #f4f4f4;
      }

      .cls-29 {
        fill: #a6a6a6;
      }

      .cls-30 {
        fill: #d0d0d0;
      }

      .cls-31 {
        fill: #fbfbfb;
      }

      .cls-32 {
        fill: #e8e8e8;
      }

      .cls-33 {
        fill: #cacaca;
      }

      .cls-34 {
        fill: #b4b4b4;
      }

      .cls-35 {
        fill: #ababab;
      }

      .cls-36 {
        fill: #fcfcfc;
      }

      .cls-37 {
        fill: #f2f2f2;
      }

      .cls-38 {
        fill: #aaa;
      }

      .cls-39 {
        fill: #d8d8d8;
      }

      .cls-40 {
        fill: #efefef;
      }

      .cls-41 {
        fill: #a4a4a4;
      }
    </style>
  </defs>
  <g id="Layer_1-2" data-name="Layer 1">
    <g>
      <rect class="cls-12" width="606.88" height="606.88"/>
      <g>
        <path class="cls-23" d="m198.05,266.27c-1.57-3.89-.66-7.78,0-11.67.97,1.58,1.82,3.25,2.96,4.7.55.71,2.07,1.61,2.38,1.38.95-.7,1.73-1.83,2.17-2.95.2-.49-.46-1.47-.93-2.05-.73-.9-1.64-1.65-2.82-2.8,1.45-.19,2.27-.29,3.09-.4.16.15.33.3.49.45,2.98,2.12,7.18.45,9.32-3.46-1.36.37-2.95.81-4.55,1.24-1.04-2.82-2.88-4.39-6.05-3.86l-.04-.07c.45-.13.89-.26,1.34-.39,2.5-.23,4.79,2.14,7.42.6.56-.33,1.63-.32,1.76-.71.21-.63.11-1.75-.33-2.14-1.24-1.11-2.71-1.96-4.1-2.91.29-.29.57-.57.86-.86.72.29,1.43.58,2.15.87,1.62,2.58,3.64,4.15,7.03,2.14-.79,1.24-1.86,2.27-1.66,2.73.6,1.36-.25,1.87-.94,2.53-.62.59-1.36,1.06-2,1.64-1.9,1.73-2,2.51-.15,4.21,2.74,2.51,5.8,4.71,8.39,7.36,2.33,2.37,5.07,2.65,8.05,2.72,4.23.1,8.48.11,12.68.51,8.49.82,16.95,1.89,25.44,2.81.73.08,1.86.03,2.2-.42,1.09-1.42,2.33-1.08,3.68-.78,2.1.46,4.22.88,6.33,1.32.14.14.29.29.43.43.22.67.33,1.4.66,2.01,4.14,7.51,8.29,15.01,12.5,22.48.42.74,1.29,1.23,1.95,1.83-.45.78-1.13,1.51-1.32,2.35-.53,2.3-.79,4.66-1.29,6.97-.67,3.09-1.45,6.16-2.28,9.64-.99-2.15-2.53-2.34-4.02-2-.58.13-.95,1.17-1.37,1.74-2.11-2.23-4.41-4.67-7.24-7.67-.14,1.52-.53,2.53-.25,3.3,2.67,7.2,5.44,14.36,8.23,21.51.74,1.9,2.2,2.96,4.31,3.01.5.01,1.06.02,1.47.24,3.46,1.85,7.06,1.08,10.53.31,1.71-.38,3.65-1.38,4.7-2.71,2.84-3.59,5.26-7.51,7.85-11.31,1.6-2.35,2.19-2.42,4.37-.58,2.58,2.17,5.1,4.42,7.8,6.43,3.56,2.66,7.51,4.5,12.08,4.59.92.15,1.87.5,2.74.38.8-.11,1.5-.82,2.29-1.15,2.39-1.01,5.01-2.39,7.4-.85,3.54,2.27,6.73,5.08,10.07,7.66-2.48,2.86-4.96,5.72-7.44,8.58-10.49-.28-20.98-.56-31.47-.84-2.46.1-4.99-.11-7.38.36-4.34.84-8.61,2.08-12.91,3.15-.83.16-1.69.25-2.5.5-3.04.95-6.07,1.96-9.11,2.94-1.27-.87-2.88-1.5-3.74-2.67-3.57-4.83-6.89-9.83-10.34-14.74-1.31-1.86-2.71-3.66-4.07-5.48-3-3.21-4.72-7-6.05-11.21-2.04-6.47-4.73-12.74-7.18-19.08-.23-.59-.67-1.09-1.01-1.64-1.24-1.36-2.42-2.77-3.74-4.06-.93-.91-.98-1.61.25-2.1,5.19-2.09,10.3-2.64,15.13.99,1.95,1.47,3.91,2.92,5.86,4.39,1.96,1.48,3.17,1.03,3.73-.98-1.08-.65-2.17-1.07-2.96-1.81-2.56-2.42-5.29-4.73-7.44-7.48-4.6-5.86-10.11-6.8-16.98-4.65-6.95,2.18-14.09,4.06-21.49,1.93-4.91-2.46-9.81-4.91-14.72-7.37-.13.22-.26.44-.38.66,1.3,1.08,2.6,2.15,3.9,3.23,1.69,3.43.87,6.48-1.55,9.18-1.1,1.23-2.43,2.24-3.66,3.35-.57-1.57-1.14-3.15-1.71-4.72.08-.55.21-1.1.23-1.65.08-2.34-.24-4.76.26-7.01.66-3.02.34-5.43-2.2-7.34-1.85-2.98-5.27-3.33-7.9-5l-.33.49c1.01.68,2.02,1.36,3.48,2.35-1.38.87-2.52,1.59-3.66,2.3,1.52.18,3.03.28,3.95-.41,1.05-.79,1.73-.73,2.65-.15,1.09,2.2-.33,3.52-1.48,4.94-.09-.22-.18-.44-.27-.65h-3.79c-1.05-.14-2.14-.16-3.14-.47-.71-.22-1.29-.82-1.93-1.26.5-.48.99-.97,1.5-1.44.46-.42.94-.81,1.24-1.06-1.27-.53-2.2-.92-3.12-1.3.61-.93,1.19-1.88,1.85-2.77.34-.45.83-.78,1.55-1.42-2.55-1-4.14.06-5.73,1.13Z"/>
        <path class="cls-40" d="m205.41,246.4c-.45.13-.89.26-1.34.39-.77-.64-1.51-1.32-2.31-1.92-1.21-.9-1.03-1.81.24-2.2,4.68-1.42,8.55-4.99,13.79-5.02,1.79,0,3.13-1.32,3.41-3.31,2.6-.43,5.19-.86,7.79-1.29,1.34.25,2.69.77,4.01.68,1.58-.11,3.81-2.88,3.74-4.15,1.15-.28,2.31-.57,3.46-.85.52.36,1.18,1.13,1.55,1.02,1.5-.47,2.9-1.27,4.38-1.84.89-.35,2.06-.96,2.75-.65,1.31.59,1.68.18,2.32-.85.51-.84,1.4-1.53,2.25-2.06,4.33-2.69,8.71-5.3,13.4-8.14-1.28,0-2.32,0-3.35,0,2.18,0,4.39-.19,6.55.03,6.32.66,12.61,1.6,18.93,0,.81-.2,1.71-.03,2.57-.04.48.12.97.34,1.46.35,8.96.33,17.92.66,26.89.94,2.64.08,5.29-.06,7.93.04,2.76.1,5,1.25,6.97,4.02-3.71.6-6.92,1.24-10.17,1.58-1.58.17-3.35.1-4.81-.45-6.51-2.45-13.22-3.29-20.11-2.99-.72.03-1.43.4-2.15.61.37.58.66.79.87.73,3.78-1.08,7.19.77,10.76,1.32,1.74.27,2.77,1.4,3.67,2.98.61,1.06,2.15,2.31,3.21,2.26,3.64-.2,7.27-.83,10.86-1.49,2.65-.49,2.7-.43,2.43,2.32-.26,2.67-.17,5.38-.23,8.07.36,1.01.67,2.05,1.1,3.03.97,2.24,2.14,4.4,2.97,6.69.89,2.44.05,3.42-2.44,3.69-1.57.17-3.11.69-4.94,1.11.88.81,1.45,1.34,2.02,1.86-4.17-.86-8.36-1.63-12.5-2.62-1.83-.44-3.2-.11-4.34,1.33-1.44.94-2.91,1.84-4.33,2.83-3.8,2.65-7.88,4.48-12.65,4.07-4.07-.35-8.13-.79-12.19-1.22-.39-.04-.81-.3-1.13-.56-3.1-2.52-6.09-5.2-9.3-7.57-3.38-2.5-3.52-2.49-2.45-7.13-1.34.39-2.37.68-3.39.99-.78.23-1.57.73-2.33.68-2.02-.15-3.55-1.11-4.82-2.84-1.11-1.51-2.72-2.65-4.15-3.91-.3-.26-.76-.34-1.32-.57,1.19-.88,1.78-1.32,2.38-1.76,0-.22.01-.43.02-.65-2.69-.59-5.4-1.07-8.05-1.78-2.61-.7-4.81-.29-6.65,1.73-.95.41-2.24.57-2.79,1.3-.91,1.2-1.89,1.28-3.17,1.2-2.64-.17-5.29-.32-7.93-.25-.62.02-1.21.96-1.84,1.45-.61.48-1.19,1.22-1.88,1.35-1.32.24-2.73-.02-4.07.18-2,.3-3.97.83-5.95,1.26-.29.29-.57.57-.86.86-4.18.06-5.02.97-4.75,5.17Zm61.67-7.32c.73.57,1.47,1.14,2.2,1.71,1.8,1.89,4.22,1.52,6.47,1.75.68.18,1.52.71,2,.48,3.08-1.48,6.08-3.12,9.08-4.75.16-.09.1-.6.14-.91.29-.86.57-1.72.86-2.58,1.2.21,2.44.31,3.58.68.33.11.68,1.38.54,1.49-2.02,1.55-4.03,3.14-6.22,4.43-2.41,1.42-5,2.53-7.5,3.81-.64.33-1.22.79-2.19,1.44,3.13,1.76,5.93,2.92,9.06,3.22,4.08.4,7.46-.97,10.31-3.88,2.57-2.62,5.06-5.33,7.82-7.73,1.58-1.38,3.55-2.97,5.47-3.15,4.16-.38,8.44-.91,12.58.63.8.3,1.89.2,2.7-.1.55-.21.85-1.1,1.26-1.68-.59-.22-1.19-.64-1.78-.61-3.3.13-6.59.36-9.88.57-1.43.09-2.86.35-4.29.29-4.85-.18-9.7-.47-14.55-.72-3.02-1.58-6.05-3.17-9.07-4.75-4.08-1.92-8.25-2.7-12.77-1.64-1.43.33-3.07-.22-4.61-.44-1.89-.27-1.71-1.5-.68-2.36,1.58-1.31,3.41-2.32,5.17-3.42.66-.41,1.39-.69,2.09-1.03-.08-.17-.16-.35-.25-.52-4.7.58-9.31,1.62-13.33,4.29-2.23,1.48-4.18,3.39-6.16,5.23-.39.36-.62,1.45-.37,1.84,1.19,1.81,2.54,3.53,5,3.66,0,0,0,0,0,0,1.36,1.6,2.71,3.2,4.07,4.8.13-.21.25-.43.38-.64.5-.74,1-1.48,1.67-2.47.55,1.43.86,2.24,1.18,3.06Z"/>
        <path class="cls-38" d="m356.41,345.19c2.48-2.86,4.96-5.72,7.44-8.58,2-2.43,4.01-4.87,6.01-7.3,4.31-4.18,8.62-8.37,12.93-12.55,2.02-2.58,4.04-5.16,6.06-7.74h.21s.21,0,.21,0c2.89.82,3.55,2.57,2.17,5.17-.06.11-.01.28-.02.42-.88.62-1.81,1.19-2.63,1.88-4.32,3.65-8.61,7.34-12.91,11.02-.88,1.19-1.85,2.33-2.62,3.59-.87,1.42-.59,2.33,1.3,2.62,3.89.59,7.76,1.3,11.63,2.02,5.34.98,10.67,2.01,16.01,3.02-.84.08-1.71.33-2.51.2-6.91-1.13-13.81-2.37-20.72-3.5-3.34-.55-6.9-2.12-9.56,1.58-1.83.61-3.79.98-5.44,1.91-1.72.97-2.33,2.65-1.05,4.54,0,.29,0,.59,0,.88-1.95,2.12-3.54,5.42-5.91,6.14-5.82,1.75-12,2.36-18.04,3.33-2.78.45-5.59.67-8.39,1l-.2.76c.78.64,1.48,1.45,2.36,1.91,4.65,2.4,9.4,4.6,13.99,7.11,1.88,1.03,3.54,1.12,5.52.54,2.95-.87,5.97-1.5,8.96-2.23-2.89,1.05-5.79,2.1-9.3,3.38,2.66,1.29,4.64,2.45,6.77,3.19,1.03.36,2.49.22,3.51-.24,3.94-1.79,7.88-3.19,12.29-3.59,6.92-.63,13.79-1.81,20.68-2.75-.12.44-.24.88-.36,1.32-5.31,2.77-11.05,3.29-16.91,3.49-3.43.12-7.02-.4-10.19,1.67-.6.39-1.53.27-2.3.44-2.95.66-5.89,1.34-8.83,2.02,0,.19,0,.38,0,.57,1.01.14,2.02.38,3.03.4,5.34.06,10.54.54,15.44,3.08,4.77,2.47,9.73,4.57,14.61,6.83-4.47,2.86-8.9,5.81-13.46,8.5-.79.47-2.4.23-3.3-.27-8.84-4.93-17.61-9.98-26.4-14.99-1.62-.92-3.35-1.7-4.84-2.8-2.06-1.5-4.05-3.13-5.87-4.9-1.09-1.05-1.98-1.58-3.56-1.13-3.24.94-6.58,1.5-9.8,2.48-2.39.73-4.47.32-6.62-.7-3.8-1.8-7.65-3.51-11.48-5.27-.78-.36-1.55-.75-2.32-1.12,7.45-4.86,14.85-9.77,24.23-10.14,6.58-.26,13.14-.83,19.71-1.25,2.64-.17,5.31-.16,7.93-.48,4.35-.53,4.69-1.31,2.68-5.31-.03-.06-.08-.12-.12-.18Z"/>
        <path class="cls-6" d="m389.27,309.02h-.21s-.21,0-.21,0c-2.31-2.02-4.63-4.05-6.94-6.07-1.03-.98-2.03-2.01-3.11-2.93-1.49-1.28-1.62-2.67-.78-4.39.91-1.86,1.63-3.8,2.42-5.71.72-1.75.29-3.06-1.53-3.79-.72-.86-1.34-1.83-2.17-2.57-3.56-3.21-7.18-6.35-10.78-9.51,1.55-1.47,3.04-3.03,4.7-4.38.56-.46,1.63-.67,2.35-.5,11.18,2.58,22.34,5.24,33.5,7.88,1.64,7.9,3.28,15.8,4.9,23.7.18.87.24,1.77.36,2.65-.62-.03-1.27-.23-1.84-.07-6.89,1.87-13.77,3.79-20.65,5.7Z"/>
        <path class="cls-1" d="m327.1,236.5c.06-2.69-.03-5.4.23-8.07.27-2.75.22-2.81-2.43-2.32-3.59.67-7.22,1.3-10.86,1.49-1.06.06-2.6-1.2-3.21-2.26-.9-1.58-1.94-2.71-3.67-2.98-3.57-.56-6.98-2.4-10.76-1.32-.21.06-.5-.15-.87-.73.72-.21,1.43-.58,2.15-.61,6.89-.3,13.6.54,20.11,2.99,1.46.55,3.23.62,4.81.45,3.25-.34,6.47-.99,10.17-1.58-1.97-2.77-4.21-3.92-6.97-4.02-2.64-.1-5.29.05-7.93-.04-8.96-.28-17.93-.61-26.89-.94-.49-.02-.97-.23-1.46-.35,2.26-.29,4.54-.9,6.78-.8,10.8.47,21.61.95,32.38,1.85,2.56.21,4.96,2.11,7.46,3.14,1.1.45,2.29.68,3.44,1.01-.2,1.4-1.11,1.65-2.35,1.55-1.63-.13-3.28-.22-4.92-.21-1.32.01-2.32.54-2.36,2.24.51.02.98.19,1.31.04,2.28-1.03,4.48-1.56,6.51.51.1.1.51-.13.78-.15.9-.07,1.82-.24,2.72-.16,2.76.23,3.06.01,3.07-3.24,15.13,1.27,30.21,2.54,45.62,3.84-.51-.8-.84-1.32-1.17-1.84,2.02,1,4.03,2,6.05,3-2.64,2.14-5.31,4.25-7.9,6.45-.81.69-1.38,1.65-2.4,2.91-.05,0-.71-.15-1.37-.29-.43-.43-.86-.87-1.29-1.3-2.05-1.83-4.36-2.83-7.35-2.43.18.81.31,1.42.44,2.02-1.29-.17-2.59-.33-3.88-.5-2.92-.42-5.84-.84-8.77-1.25-1.11-.16-2.21-.29-3.32-.43,1.95-3.53,1.41-4.74-2.56-5.27-1.75-.23-3.55-.14-5.32-.23-4.83-.26-9.61-.17-14.26,1.42-1.45.49-2.31,1.29-2.58,2.82-.51,2.89-1.06,5.78-1.68,8.66-.29,1.35.66,1.11,1.37,1.24-.67,1.41-1.69,1.43-2.44.27-.91-1.42-1.48-3.06-2.26-4.57-.27-.53-.74-.95-1.13-1.42-.36.46-.72.93-1.08,1.39Z"/>
        <path class="cls-4" d="m369.41,337.04c2.66-3.7,6.22-2.13,9.56-1.58,6.91,1.13,13.81,2.37,20.72,3.5.8.13,1.67-.13,2.51-.2,1.17-.71,2.35-1.42,3.52-2.12-.09.35-.11.73-.27,1.03-2.62,4.99-2.66,10.42-2.82,15.85-.03.98-.27,1.96-.42,2.94-.69-.12-1.38-.36-2.07-.35-5.21.08-10.43.22-15.64.34-.38-.32-.71-.73-1.14-.96-6.81-3.72-13.63-7.41-20.44-11.11,0-.29,0-.59,0-.88,2.17-2.15,4.33-4.3,6.5-6.45Z"/>
        <path class="cls-19" d="m260.65,296.47c.34.54.78,1.05,1.01,1.64,2.45,6.34,5.14,12.61,7.18,19.08,1.33,4.21,3.05,8,6.05,11.21.2.86.4,1.72.62,2.67-2.44-.24-2.97.28-2.54,2.5.97,5,2.04,9.98,3.06,14.97.45,2.19.06,4.32-1.56,5.8-3.94,3.6-8.06,6.99-12.13,10.45-.2.17-.56.15-1.13.3.76-1.11,1.29-1.96,1.9-2.74,3.88-4.96,3.76-11.18,5.23-16.88.81-3.15,1.21-6.41,1.69-9.64.11-.72-.18-1.49-.29-2.24-.21.01-.42.02-.63.03-.17,1.02-.2,2.09-.54,3.05-.28.77-.94,1.41-1.43,2.1-.26-1.1-1.52-2.21-.14-3.31,1.15-.91,1.33-1.86.77-3.2-.23-.55.16-1.34.26-2.03.19-1.36.61-2.74.48-4.07-.16-1.62-.77-3.21-1.22-4.79-.2-.69-.5-1.35-.75-2.03-.23-.02-.46-.04-.7-.06-.68,1.46-2.01,2.95-1.92,4.36.3,5.08-.49,10.02-.9,15.03-.27,3.4-.68,6.65-1.7,9.85-.72,2.25-2.27,3.78-4.57,4.49.89-1.29,1.79-2.56,2.66-3.87,1.61-2.42,1.34-5.21,1.47-7.91.14-2.86.65-5.78.27-8.57-.54-3.98-.42-7.69,1.62-11.22.25-.44.23-1.03.33-1.55-.21-.17-.43-.34-.64-.5-.93.94-2.08,1.75-2.75,2.84-2.16,3.54-1.9,7.52-1.9,11.47,0,1.08-.27,2.46-.96,3.17-1.39,1.45-3.26,2.43-4.75,3.81-1.39,1.29-2.71,1.84-4.39.69-2.28-6.75-4.56-13.49-6.82-20.24-.38-1.14-.65-2.33-.97-3.49,2.03,3.62,4.03,7.25,6.1,10.85.47.81,1.19,1.48,1.8,2.21.81-.86,1.9-1.6,2.34-2.62.59-1.35.68-2.92.98-4.4.29-1.3.57-2.59.86-3.89,0-.14.01-.28.01-.41,2.59,1.52,5.27.38,7.9.17.58-.05,1.17-.73,1.66-1.21,1.05-1.03,2.15-2.04,3.01-3.23.4-.55.27-1.47.38-2.22-2.02-4.6-4.03-9.2-6.05-13.8.58-.86,1.15-1.73,1.73-2.59Z"/>
        <path class="cls-33" d="m375.89,327.52c4.3-3.68,8.59-7.36,12.91-11.02.82-.69,1.75-1.26,2.63-1.88,2.97-1.26,5.9-2.66,8.93-3.73,4.13-1.46,8.37-2.62,10.89-6.66-.59,4.74-1.1,9.49-1.78,14.22-.77,5.35-1.7,10.67-2.55,16-10.34-2.31-20.69-4.63-31.03-6.94Z"/>
        <path class="cls-32" d="m400.04,244.7c1.38-.16,2.1.46,2.43,1.81.85,3.48,1.82,6.92,2.67,10.4.94,3.82,1.79,7.66,2.69,11.5-6.76-.61-13.51-1.19-20.26-1.85-3.19-.31-6.36-.76-9.53-1.15.92-.37,1.84-.73,2.99-1.19,0-2.19.03-4.68-.03-7.18-.01-.41-.37-1.01-.73-1.17-2.28-.97-4.54-2.32-6.92-2.65-4.39-.6-8.87-.47-13.29-.89-1.52-.15-2.97-1.04-4.46-1.59,1.64,0,3.27.04,4.91-.02,2.4-.1,4.79-.28,7.18-.42,1,0,2,0,3,0,9.59.08,19.18.21,28.76.15.63,0,1.75-1.41,1.76-2.17.01-1.19-.74-2.38-1.16-3.57Z"/>
        <path class="cls-15" d="m293.05,351.29c3.03-.99,6.06-1.99,9.1-2.94.81-.25,1.66-.34,2.5-.5-1.48,2.19-2.94,4.39-4.43,6.57-.6.87-1.29,1.67-1.93,2.52-.76,1.01-1.43,2.09-2.25,3.05-1.51,1.79-3.08,3.54-4.66,5.28-1.92,2.11-3.67,4.47-5.88,6.22-3.4,2.7-7.23,4.85-10.67,7.51-1.79,1.39-3.13,3.37-4.67,5.09-6.72,4.6-14.25,5.6-22.15,4.93-3.29-.28-6.59-.58-9.31-2.78-.5-.4-.94-.86-1.41-1.29,1-1.21,2.09-.83,3.29-.31,1.16.5,2.38.99,3.61,1.16,2.69.38,5.42.47,8.11.83,5.39.72,10.34.37,13.59-4.85.26-.42.59-.86,1-1.11,4.31-2.59,6.55-6.92,9.25-10.88,4.51-7.19,10.11-13.38,16.88-18.51Z"/>
        <path class="cls-30" d="m378.03,265.41c3.18.39,6.35.84,9.53,1.15,6.75.66,13.51,1.24,20.26,1.85-.44,2.88-.88,5.75-1.32,8.63-11.16-2.64-22.32-5.3-33.5-7.88-.72-.17-1.79.05-2.35.5-1.66,1.35-3.14,2.9-4.7,4.38-1.25-.91-2.5-1.81-3.56-2.58-3.5,3.31-6.69,6.62-10.18,9.56-3.6,3.04-7.5,5.73-11.26,8.57.42-1.18.85-2.36,1.27-3.53.98-.83,1.92-1.7,2.94-2.47,8.7-6.53,17.31-13.14,24.25-21.63,1.05-.71,1.85-2.04,3.45-1.3-.16,1.3-.32,2.6-.53,4.3.99.12,2.27.28,3.55.43.72,0,1.44,0,2.16.01Z"/>
        <path class="cls-26" d="m276.16,369.8c-2.7,3.95-4.94,8.28-9.25,10.88-.41.25-.74.69-1,1.11-3.25,5.22-8.21,5.57-13.59,4.85-2.69-.36-5.42-.45-8.11-.83-1.24-.17-2.46-.66-3.61-1.16-1.2-.52-2.29-.91-3.29.31-2.3-2.45-4.6-4.91-6.9-7.36,4.04,0,8.08,0,12.11,0,2.86-.14,5.73-.51,8.58-.38,5.63.26,11.03-.18,15.9-3.36.71-.47,1.51-.81,2.3-1.15,2.28-.98,4.58-1.93,6.87-2.9Z"/>
        <path class="cls-20" d="m252.02,319.35c0,.14,0,.28-.01.41-.91-1.22-1.87-2.4-2.71-3.66-1.32-2.01-2.41-4.18-3.87-6.08-1.43-1.86-3.27-3.41-4.81-5.2-3.13-3.63-6.09-7.43-9.33-10.96-1.08-1.18-2.83-1.74-4.27-2.59-1.3-.58-2.61-1.17-3.91-1.75.54-1.86.92-3.78,1.65-5.56.68-1.66.24-2.78-1.06-3.73-.58-.42-1.25-.69-1.89-1.03-1.3-1.08-2.6-2.15-3.9-3.23.13-.22.26-.44.38-.66,4.91,2.46,9.81,4.91,14.72,7.37,2.12,2.75,4.76,4.48,8.31,5.11,3.99.71,7.9,1.92,11.83,2.97.69.18,1.31.63,2.02.99-.61.73-1.01,1.21-1.42,1.69-3.36-2.65-7.21-3.89-11.78-4.24,1.51,2.23-.09,2.66-1.42,3.23-2.53,1.1-2.77,1.76-1,3.9,2.69,3.25,5.45,6.44,8.31,9.53,2.01,2.18,3.26,4.63,3.82,7.53.22,1.15.78,2.23,1.19,3.35-.28.87-.57,1.74-.85,2.61Z"/>
        <path class="cls-13" d="m247.72,341.34c1.68,1.15,3,.6,4.39-.69,1.48-1.38,3.35-2.36,4.75-3.81.69-.72.96-2.09.96-3.17,0-3.95-.26-7.93,1.9-11.47.67-1.1,1.82-1.9,2.75-2.84.21.17.43.34.64.5-.1.52-.08,1.11-.33,1.55-2.04,3.54-2.16,7.24-1.62,11.22.38,2.79-.13,5.71-.27,8.57-.13,2.7.14,5.49-1.47,7.91-.87,1.3-1.77,2.58-2.66,3.87-1.01.72-2.01,1.44-3.02,2.16-3.59.68-7.19,1.36-10.79,2.04-1.74.33-3.48.64-5.22.96-.12-2.49.94-4.36,2.93-5.81,2.56-1.86,4.87-3.99,6.09-6.99.51-1.26.65-2.66.96-4Z"/>
        <path class="cls-27" d="m356.41,345.19c.04.06.09.11.12.18,2.01,4,1.68,4.78-2.68,5.31-2.62.32-5.29.31-7.93.48-6.57.42-13.13.99-19.71,1.25-9.38.37-16.77,5.28-24.23,10.14-2.85-.46-4.54,1.63-6.52,3.01-2.59,1.81-5.1,3.74-7.64,5.62,4.66-5.35,10.19-9.71,16.16-13.46,5.78-3.63,11.61-7.36,18.83-7.48.13,0,.33-.06.39-.16,1.01-1.61,2.59-1.11,4.05-1.17.69-.03,1.37-.42,2.06-.64-.02-.15-.04-.3-.06-.46-.58-.09-1.16-.17-1.9-.28,1.2-2.73-1.31-2.36-2.41-3.18,10.49.28,20.98.56,31.47.84Z"/>
        <path class="cls-34" d="m389.64,382.72c-4.88-2.26-9.84-4.36-14.61-6.83-4.9-2.54-10.09-3.01-15.44-3.08-1.01-.01-2.02-.26-3.03-.4,0-.19,0-.38,0-.57,2.94-.68,5.88-1.36,8.83-2.02.77-.17,1.69-.05,2.3-.44,3.17-2.07,6.76-1.56,10.19-1.67,5.86-.2,11.6-.72,16.91-3.49-1.72,6.17-3.43,12.33-5.15,18.5Z"/>
        <path class="cls-41" d="m384.51,356.44c5.21-.12,10.42-.25,15.64-.34.69-.01,1.38.23,2.07.35-.62.81-1.13,1.76-1.89,2.41-1.66,1.42-3.44,2.7-5.17,4.04-6.89.94-13.76,2.12-20.68,2.75-4.41.4-8.35,1.8-12.29,3.59-1.02.46-2.47.59-3.51.24-2.13-.73-4.11-1.9-6.77-3.19,3.51-1.28,6.4-2.33,9.3-3.38,3.23-.89,6.47-1.77,9.7-2.67,4.54-1.26,9.07-2.54,13.61-3.81Z"/>
        <path class="cls-23" d="m400.04,244.7c.43,1.19,1.17,2.39,1.16,3.57,0,.76-1.13,2.17-1.76,2.17-9.59.06-19.18-.07-28.76-.15,1.16-.29,2.31-.57,3.47-.86,4.4-.46,8.83-.77,13.19-1.45,1.68-.26,3.26-1.32,4.79-2.19.23-.13.13-1.63-.17-1.77-3.02-1.45-6.1-2.74-9.17-4.08,0-.28,0-.57,0-.85.14-1.01.28-2.02.41-3.02.66.14,1.33.28,1.37.29,1.02-1.26,1.59-2.22,2.4-2.91,2.59-2.2,5.26-4.31,7.9-6.45.61.86,1.56,1.65,1.79,2.61,1.05,4.54,1.9,9.13,2.85,13.7.1.48.35.93.53,1.4Z"/>
        <path class="cls-38" d="m324.93,344.35c1.1.82,3.61.45,2.41,3.18.74.11,1.32.19,1.9.28.02.15.04.3.06.46-.69.22-1.36.61-2.06.64-1.46.07-3.04-.43-4.05,1.17-.06.1-.25.16-.39.16-7.21.13-13.04,3.85-18.83,7.48-5.97,3.75-11.49,8.11-16.16,13.46-5.89,4.3-11.77,8.61-17.66,12.91,1.54-1.71,2.88-3.7,4.67-5.09,3.44-2.66,7.27-4.81,10.67-7.51,2.21-1.76,3.95-4.11,5.88-6.22,1.58-1.74,3.15-3.48,4.66-5.28.81-.96,1.49-2.04,2.25-3.05.63-.85,1.33-1.65,1.93-2.52,1.5-2.18,2.96-4.38,4.43-6.57,4.3-1.07,8.56-2.31,12.91-3.15,2.39-.46,4.91-.26,7.38-.36Z"/>
        <path class="cls-23" d="m388.82,224c.33.52.67,1.05,1.17,1.84-15.41-1.3-30.49-2.57-45.62-3.84,0,3.25-.3,3.47-3.07,3.24-.9-.07-1.81.09-2.72.16-.27.02-.68.26-.78.15-2.04-2.08-4.23-1.55-6.51-.51-.33.15-.8-.01-1.31-.04.04-1.71,1.04-2.23,2.36-2.24,1.64-.01,3.28.07,4.92.21,1.24.1,2.15-.15,2.35-1.55,5.83-.67,11.65-1.36,17.48-1.99,5.83-.64,11.66-1.23,17.5-1.81.47-.05,1.02.07,1.45.28,4.27,2.02,8.52,4.07,12.77,6.11Z"/>
        <path class="cls-27" d="m375.89,327.52c10.34,2.31,20.69,4.63,31.03,6.94-.4.73-.8,1.45-1.19,2.18-1.17.71-2.35,1.42-3.52,2.12-5.34-1.01-10.67-2.04-16.01-3.02-3.87-.71-7.74-1.43-11.63-2.02-1.88-.28-2.17-1.19-1.3-2.62.77-1.26,1.74-2.4,2.62-3.59Z"/>
        <path class="cls-8" d="m231.33,372.39c-1.46-2.01-2.92-4.01-4.38-6.02,2.86.05,5.65-.11,7.82-2.74h-5.78c1.92-.92,4.22-2.21,5.81-1.62,3.21,1.2,6.03,3.41,9.01,5.21-.15.14-.29.28-.44.42-.97.36-1.93.72-2.9,1.08.11.33.21.67.32,1,1.01-.25,2.02-.51,3.03-.76.14,0,.29-.01.43-.02l6.47,2.15c-.57.29-1.15.58-1.72.88-2.08.42-4.15,1.08-6.24,1.18-2.75.13-5.53-.16-8.29-.33-1.05-.06-2.09-.29-3.14-.44Z"/>
        <path class="cls-16" d="m251.14,323.65c-.3,1.48-.39,3.05-.98,4.4-.45,1.02-1.54,1.76-2.34,2.62-.61-.73-1.33-1.4-1.8-2.21-2.07-3.59-4.07-7.23-6.1-10.85-3.32-7.76-6.64-15.52-9.96-23.29.75.62,1.72,1.1,2.2,1.89,1.55,2.5,2.8,5.17,4.37,7.66,3.9,6.18,7.89,12.31,11.89,18.43.59.91,1.22,2.12,2.72,1.34Z"/>
        <path class="cls-41" d="m205.84,274.88h3.79c.09.22.18.44.27.65,1.14-1.42,2.57-2.73,1.48-4.94.6.14,1.2.28,1.8.42,2.55,1.91,2.87,4.33,2.2,7.34-.5,2.25-.18,4.67-.26,7.01-.02.55-.15,1.1-.23,1.65-3.29-1.73-3.3-1.74-6,.95-1.2,1.2-2.34,2.47-3.51,3.71.72-1.94,1.22-4,2.22-5.78,1.3-2.31,1.3-3.11-.4-5.15-.98-1.17-1.73-2.59-2.31-4-.17-.42.6-1.23.94-1.86Z"/>
        <path class="cls-9" d="m251.14,323.65c-1.5.77-2.13-.44-2.72-1.34-4-6.12-7.99-12.25-11.89-18.43-1.57-2.48-2.82-5.16-4.37-7.66-.48-.78-1.45-1.27-2.2-1.89-.99-1.02-1.97-2.03-2.96-3.05,1.44.84,3.19,1.41,4.27,2.59,3.25,3.53,6.2,7.32,9.33,10.96,1.54,1.79,3.38,3.33,4.81,5.2,1.46,1.9,2.55,4.07,3.87,6.08.83,1.27,1.8,2.45,2.71,3.66-.29,1.3-.57,2.59-.86,3.89Z"/>
        <path class="cls-23" d="m261.5,216.21h3.35c-4.69,2.84-9.07,5.45-13.4,8.14-.86.53-1.74,1.22-2.25,2.06-.63,1.03-1.01,1.44-2.32.85-.69-.31-1.86.3-2.75.65-1.48.57-2.87,1.37-4.38,1.84-.37.12-1.02-.65-1.55-1.02.12-.08.28-.14.34-.26,3.31-6.5,10.28-7.71,15.91-10.77,2.02-1.1,4.68-1.03,7.05-1.49Z"/>
        <path class="cls-27" d="m411.25,304.23c-2.52,4.04-6.77,5.2-10.89,6.66-3.04,1.07-5.96,2.47-8.93,3.73,0-.14-.04-.31.02-.42,1.38-2.61.72-4.36-2.17-5.17,6.88-1.91,13.76-3.83,20.65-5.7.56-.15,1.22.04,1.84.07-.17.28-.34.56-.51.84Z"/>
        <path class="cls-22" d="m231.33,372.39c1.04.15,2.08.38,3.14.44,2.76.17,5.54.46,8.29.33,2.09-.1,4.16-.77,6.24-1.18-1.12,1.49-1.86,3.01-.42,4.72-2.02.29-4.04.59-6.06.88-4.04,0-8.08,0-12.11,0,.31-1.73.62-3.46.93-5.2Z"/>
        <path class="cls-24" d="m204.9,252.49c-.82.11-1.64.21-3.09.4,1.18,1.15,2.09,1.9,2.82,2.8.48.59,1.13,1.56.93,2.05-.44,1.12-1.22,2.25-2.17,2.95-.32.23-1.83-.67-2.38-1.38-1.13-1.45-1.99-3.12-2.96-4.7-.55-1.34-.95-2.79-1.7-4.01-1.07-1.74-1.66-3.44-.84-5.42.4.47.72,1.12,1.23,1.37,1.55.76,3.17,1.36,4.77,2.02.34.53.61,1.12,1.03,1.58.75.82,1.58,1.56,2.37,2.33Z"/>
        <path class="cls-23" d="m201.5,248.57c-1.59-.66-3.22-1.27-4.77-2.02-.51-.25-.83-.9-1.23-1.37,3.11-5.42,8.47-6.49,13.99-7.41,1.43-.24,2.74-1.08,4.13-1.57,1.85-.65,3.72-1.24,5.58-1.85-.28,1.99-1.62,3.3-3.41,3.31-5.24.03-9.11,3.6-13.79,5.02-1.27.38-1.45,1.29-.24,2.2.8.6,1.54,1.28,2.31,1.92,0,0,.04.07.04.07-.87.57-1.74,1.14-2.61,1.71Z"/>
        <path class="cls-8" d="m205.84,274.88c-.34.63-1.11,1.43-.94,1.86.58,1.42,1.33,2.83,2.31,4,1.7,2.04,1.69,2.84.4,5.15-1,1.78-1.5,3.84-2.22,5.78-.72.16-1.44.33-2.16.49.23-.27.54-.5.67-.81,1.97-4.85,1.94-9.68-.29-14.44-.77-1.64-1.82-1.61-2.94-.29-2.95-2.93-2.44-6.72-2.6-10.35,1.59-1.06,3.18-2.13,5.73-1.13-.72.65-1.21.98-1.55,1.42-.66.89-1.24,1.84-1.85,2.77.92.39,1.84.77,3.12,1.3-.3.25-.78.65-1.24,1.06-.51.47-1,.96-1.5,1.44.64.43,1.22,1.04,1.93,1.26,1,.31,2.09.33,3.14.47Z"/>
        <path class="cls-3" d="m200.65,276.62c1.12-1.32,2.17-1.35,2.94.29,2.23,4.76,2.26,9.59.29,14.44-.13.31-.44.54-.67.81-2.26-2.9-2.8-6.3-2.78-9.83,0-1.9.14-3.8.22-5.7Z"/>
        <path class="cls-39" d="m243.8,367.23c-2.98-1.8-5.81-4.02-9.01-5.21-1.59-.59-3.88.7-5.81,1.62h5.78c-2.17,2.63-4.96,2.79-7.82,2.74-1.35-1.62-2.74-3.21-4.04-4.87-.47-.6-.74-1.36-1.1-2.04,1.14.56,2.23,1.38,3.44,1.65,4.62,1.04,6.45,1.52,7.79-2.5.72,0,1.44.01,2.17.02,0,.27,0,.54,0,.81-.31.2-.62.41-.93.61.45.38.9.76,1.35,1.13.61.34,1.19.72,1.82,1,2.84,1.26,5.68,2.5,8.53,3.74-.72.43-1.44.87-2.16,1.3Z"/>
        <path class="cls-25" d="m221.81,279.21c.63.34,1.31.62,1.89,1.03,1.3.95,1.74,2.07,1.06,3.73-.73,1.78-1.11,3.7-1.65,5.56-1.2.99-2.39,2-3.61,2.97-1.29,1.04-2.34,1.04-2.89-.76,1.23-1.11,2.56-2.13,3.66-3.35,2.42-2.7,3.24-5.75,1.55-9.18Z"/>
        <path class="cls-32" d="m233.03,358.62c-1.34,4.02-3.17,3.53-7.79,2.5-1.21-.27-2.29-1.08-3.44-1.65,1-.33,1.99-.9,3-.93,2.74-.09,5.48.04,8.23.08Z"/>
        <path class="cls-14" d="m235.19,359.45c0-.27,0-.54,0-.81.85-.16,1.69-.33,2.54-.49,1.74-.32,3.48-.64,5.22-.96,3.6-.68,7.19-1.36,10.79-2.04,0,.14,0,.29,0,.43-3.77,2.33-8.02,2.93-12.31,3.47-.79.1-1.53.51-2.3.77-1.31-.12-2.63-.25-3.94-.37Z"/>
        <path class="cls-23" d="m234.74,229.58c.07,1.27-2.17,4.04-3.74,4.15-1.31.09-2.67-.43-4.01-.68,2.34-1.69,4.46-3.9,7.75-3.47Z"/>
        <path class="cls-36" d="m238.63,233.91c1.84-2.02,4.04-2.44,6.65-1.73,2.65.71,5.36,1.2,8.05,1.78,0,.22-.01.43-.02.65-.6.44-1.19.88-2.38,1.76.56.23,1.02.31,1.32.57,1.43,1.26,3.04,2.4,4.15,3.91,1.27,1.72,2.8,2.69,4.82,2.84.76.05,1.55-.44,2.33-.68,1.03-.31,2.06-.6,3.39-.99-1.07,4.64-.93,4.63,2.45,7.13,3.21,2.38,6.2,5.05,9.3,7.57.32.26.73.51,1.13.56,4.06.44,8.12.87,12.19,1.22,4.77.41,8.84-1.42,12.65-4.07,1.41-.98,2.88-1.89,4.33-2.83,3.16-.91,6.25-.33,9.34.43,4.97,1.22,9.96,2.4,15.5,3.74-2.1,1.9-3.7,3.34-5.38,4.85-.64-.72-1.09-1.22-1.83-2.05-.3.86-.75,1.46-.63,1.94.33,1.42-.28,2.14-1.47,2.7-.57.27-.99.83-1.54,1.17-4.18,2.57-8.53,4.87-13.48,5.27-2.9.24-5.87-.25-8.81-.44-6.16-.39-12.31-.8-18.47-1.21-2.11-.44-4.22-.86-6.33-1.32-1.35-.3-2.59-.63-3.68.78-.34.45-1.47.5-2.2.42-8.48-.91-16.95-1.99-25.44-2.81-4.2-.4-8.45-.41-12.68-.51-2.98-.07-5.72-.35-8.05-2.72-2.6-2.65-5.65-4.85-8.39-7.36-1.85-1.69-1.75-2.48.15-4.21.64-.58,1.37-1.05,2-1.64.7-.66,1.54-1.17.94-2.53-.21-.46.87-1.49,1.66-2.73-3.39,2.02-5.41.45-7.03-2.14,3.65-1.1,7.27-1.34,10.96-.03,1.17.41,2.59.51,3.81.28,2.88-.53,5.71-1.31,8.54-2.06,2.33-.62,4.64-1.33,6.96-2l-.2-.85c-.95.1-1.91.31-2.85.27-.88-.04-1.76-.34-2.64-.53.3-.81.6-1.62.9-2.43Z"/>
        <path class="cls-26" d="m342.21,286.06c-.42,1.18-.85,2.36-1.27,3.53.81.43,1.57.98,2.43,1.26,2.25.73,4.54,1.35,6.81,2.02,7.57,2.23,15.15,4.46,22.71,6.7,1.14.34,2.14.48,2.55-1.01,1.14-4.15,2.3-8.29,3.46-12.43,1.82.73,2.25,2.03,1.53,3.79-.79,1.91-1.51,3.86-2.42,5.71-.84,1.72-.71,3.11.78,4.39,1.08.93,2.08,1.95,3.11,2.93-.57,2.47-.57,5.1-2.44,7.17-.83.92-1.5,1.7-2.86,1.09-1.24-.56-1.48.28-1.59,1.24-.76-.09-1.56-.05-2.27-.28-2.19-.71-4.31-1.64-6.52-2.22-1.01-.27-2.37-.27-3.25.2-3.29,1.76-6.45,3.76-9.64,5.7-.38.23-.62.68-1.07,1.19,1.65,1.21,3.12,2.34,4.64,3.4,4.31,2.98,8.63,5.92,12.95,8.87-2,2.43-4.01,4.87-6.01,7.3-3.34-2.58-6.53-5.39-10.07-7.66-2.39-1.53-5.01-.16-7.4.85-.79.33-1.49,1.04-2.29,1.15-.88.13-1.83-.23-2.74-.38-4.42-3.27-8.79-6.59-13.27-9.78-2.2-1.57-4.53-2.96-6.88-4.31-1.62-.93-2.95-.47-4.03,1.12-2.84,4.2-5.75,8.36-8.63,12.53-2.3.14-4.61.27-6.91.41.55-.82,1.19-1.58,1.62-2.46,1.3-2.63,2.36-5.4,3.8-7.94,4.61-8.1,9.35-16.12,14.03-24.18,1.2-2.06,1.92-4.68,5.17-4.22,5.32-1.89,10.64-3.79,15.96-5.68Zm20.71,15.83c-.61-.41-.76-.59-.95-.64-6.87-1.84-13.74-3.7-20.63-5.46-.92-.23-2-.02-2.97.16-6.55,1.22-12.86,3.02-17.81,7.89-.5.5-1.2.8-1.76,1.24-.88.68-1.73,1.41-2.69,2.21.54.48.82.8,1.17,1.03,6.87,4.47,13.76,8.9,20.6,13.41,1.4.93,2.29.72,3.51-.41,6.22-5.75,12.53-11.39,18.82-17.07.83-.75,1.69-1.47,2.73-2.36Z"/>
        <path class="cls-24" d="m326.25,291.74c-3.25-.47-3.97,2.15-5.17,4.22-4.68,8.06-9.43,16.08-14.03,24.18-1.45,2.54-2.5,5.31-3.8,7.94-.43.87-1.07,1.64-1.62,2.46-3.05.03-6.11.03-9.21,1.15,2.96,3.59,11.59,1.26,16.12-1.56,2.88-4.17,5.8-8.32,8.63-12.53,1.07-1.59,2.41-2.05,4.03-1.12,2.35,1.35,4.68,2.74,6.88,4.31,4.47,3.19,8.85,6.51,13.27,9.78-4.57-.1-8.52-1.94-12.08-4.59-2.7-2.01-5.22-4.26-7.8-6.43-2.18-1.84-2.77-1.77-4.37.58-2.58,3.79-5.01,7.72-7.85,11.31-1.05,1.33-3,2.33-4.7,2.71-3.47.77-7.07,1.53-10.53-.31-.42-.22-.98-.23-1.47-.24-2.11-.05-3.57-1.11-4.31-3.01-2.79-7.15-5.56-14.32-8.23-21.51-.28-.76.11-1.77.25-3.3,2.83,3,5.13,5.44,7.24,7.67.42-.57.79-1.61,1.37-1.74,1.5-.34,3.03-.15,4.02,2,.83-3.48,1.62-6.54,2.28-9.64.5-2.31.76-4.67,1.29-6.97.19-.84.87-1.57,1.32-2.35,4.17-1.94,8.43-3.72,12.48-5.88,2.77-1.48,5.25-1.47,7.97-.11,1.56.79,3.25,1.33,5.25,2.12,0-2.74.03-5,0-7.26-.05-3.34-.15-6.68-.23-10.01.63.04,1.33.28,1.87.09,4.91-1.76,9.81-3.56,14.68-5.42,2.72-1.04,5.39-2.21,8.09-3.33.58,1.75-.96,1.65-1.83,1.97-6.54,2.37-13.1,4.68-19.66,7.01-1.17.42-2.27.78-2.15,2.46.31,4.21.43,8.44.78,12.65.08.93.81,1.81,1.24,2.72Z"/>
        <path class="cls-5" d="m323.22,273.61c.08,3.34.17,6.68.23,10.01.03,2.26,0,4.52,0,7.26-1.99-.79-3.69-1.33-5.25-2.12-2.71-1.37-5.2-1.37-7.97.11-4.05,2.16-8.31,3.94-12.48,5.88-.66-.6-1.53-1.09-1.95-1.83-4.21-7.47-8.36-14.97-12.5-22.48-.33-.61-.45-1.34-.66-2.01,1.64,1.56,3.28,3.12,5.1,4.86,1.28-2.54,3.02-1.1,4.61-.34,1.54.73,2.99,1.66,4.42,2.58.52.34,1.26.91,1.27,1.39.06,2.52,2.08,2.38,3.61,2.75,3.12.75,5.83,1.9,7.63,4.85.64,1.04,2.17,1.54,3.72,2.56-.24-4.95-.36-9.23-.67-13.49-.24-3.3-.08-3.76,3.14-4.79,8.06-2.59,16.14-5.14,24.21-7.72,1.03-.33,2.23-.55,1.66-2.13.07-1.25-.28-2.77.3-3.71,1.97-3.19,4.43-5.88,8.77-5.37.99.12,2.01.01,3.02.01.72.29,1.43.59,2.15.88,1.48.55,2.94,1.45,4.46,1.59,4.42.42,8.9.29,13.29.89,2.39.33,4.64,1.67,6.92,2.65.35.15.72.76.73,1.17.07,2.49.03,4.98.03,7.18-1.14.45-2.06.82-2.99,1.19-.72,0-1.44,0-2.16-.01-.03-2.2-.05-4.41-3.02-4.74-1.59-.74-2.4.59-3.45,1.3-.64-1.03-1.05-2.37-1.96-3.04-2.01-1.49-4.24-2.67-6.41-3.93-3.42-1.99-6.83-4.05-11.07-3.43-.34.05-.71-.08-1.06-.13-2.51-.38-4.3.7-5.37,3.22-1.03,2.43-.46,4.94,1.22,6.45,1.14,1.03,2.05,2.32,3.06,3.49-8.19,3.01-16.39,6.02-24.58,9.02Z"/>
        <path class="cls-18" d="m242.52,377.59c2.02-.29,4.04-.59,6.06-.88,1.28-.15,2.58-.19,3.84-.46,4.18-.92,8.39-1.77,12.5-2.98,1.39-.41,2.74-1.62,3.67-2.8,1.24-1.57.97-3.5-.41-4.91-.59-.6-1.99-1.03-2.72-.75-3.59,1.35-7.09,2.96-10.62,4.48-1.38.6-2.74,1.22-4.12,1.83l-6.47-2.15c2.76-2.38,6.23-2.64,9.6-3.27,4.92-.91,8.92-5.48,9.24-10.49.09-1.45-.44-2.24-2.04-1.8,1.89-4.59,3.78-9.18,5.67-13.77.14-.29.29-.58.43-.87.49-.7,1.15-1.33,1.43-2.1.35-.96.38-2.03.54-3.05.21-.01.42-.02.63-.03.11.75.4,1.53.29,2.24-.49,3.23-.88,6.49-1.69,9.64-1.47,5.7-1.35,11.92-5.23,16.88-.61.78-1.13,1.63-1.9,2.74.57-.14.93-.13,1.13-.3,4.06-3.46,8.19-6.85,12.13-10.45,1.61-1.47,2.01-3.6,1.56-5.8-1.02-4.99-2.09-9.97-3.06-14.97-.43-2.21.11-2.74,2.54-2.5-.22-.95-.42-1.81-.62-2.67,1.36,1.83,2.77,3.62,4.07,5.48,3.45,4.91,6.78,9.92,10.34,14.74.87,1.17,2.48,1.79,3.74,2.67-6.77,5.13-12.37,11.32-16.88,18.51-2.29.96-4.58,1.91-6.87,2.89-.79.34-1.59.68-2.3,1.15-4.87,3.18-10.28,3.62-15.9,3.36-2.85-.13-5.72.24-8.58.38Z"/>
        <path class="cls-37" d="m341.35,258.94c.57,1.58-.63,1.8-1.66,2.13-8.07,2.57-16.15,5.13-24.21,7.72-3.22,1.03-3.38,1.5-3.14,4.79.31,4.27.44,8.54.67,13.49-1.55-1.02-3.09-1.52-3.72-2.56-1.8-2.95-4.51-4.11-7.63-4.85-1.53-.37-3.55-.23-3.61-2.75-.01-.48-.75-1.05-1.27-1.39-1.43-.92-2.88-1.85-4.42-2.58-1.59-.75-3.33-2.2-4.61.34-1.82-1.73-3.46-3.29-5.1-4.86-.14-.14-.29-.29-.43-.43,6.15.4,12.31.81,18.46,1.21,2.94.19,5.9.68,8.81.44,4.95-.41,9.3-2.71,13.48-5.27.55-.34.97-.9,1.54-1.17,1.19-.56,1.8-1.27,1.47-2.7-.11-.48.33-1.08.63-1.94.74.83,1.19,1.34,1.83,2.05,1.68-1.51,3.28-2.96,5.38-4.85-5.54-1.33-10.53-2.51-15.5-3.74-3.09-.76-6.18-1.34-9.34-.43,1.14-1.44,2.51-1.77,4.34-1.33,4.14.99,8.33,1.76,12.5,2.62,5.51,1.15,11.22,1.81,15.53,6.05Z"/>
        <path class="cls-25" d="m253.75,293.45c.4-.48.81-.96,1.42-1.69-.72-.36-1.33-.8-2.02-.99-3.93-1.05-7.84-2.26-11.83-2.97-3.55-.63-6.19-2.36-8.31-5.11,7.41,2.13,14.54.25,21.49-1.93,6.87-2.15,12.38-1.21,16.98,4.65,2.16,2.75,4.88,5.07,7.44,7.48.79.74,1.88,1.17,2.96,1.81-.56,2.01-1.77,2.47-3.73.98-1.94-1.48-3.91-2.92-5.86-4.39-4.83-3.64-9.94-3.08-15.13-.99-1.23.49-1.17,1.19-.25,2.1,1.31,1.29,2.5,2.7,3.74,4.06-.58.86-1.15,1.73-1.73,2.59-1.72-1.87-3.44-3.74-5.16-5.61Z"/>
        <path class="cls-28" d="m238.63,233.91c-.3.81-.6,1.62-.9,2.43.88.19,1.75.49,2.64.53.95.04,1.9-.17,2.85-.27l.2.85c-2.32.67-4.62,1.38-6.96,2-2.83.75-5.67,1.52-8.54,2.06-1.22.23-2.64.13-3.81-.28-3.69-1.31-7.31-1.07-10.96.03-.72-.29-1.43-.58-2.15-.87,1.98-.43,3.95-.95,5.95-1.26,1.33-.2,2.74.06,4.07-.18.69-.12,1.27-.86,1.88-1.35.62-.49,1.21-1.43,1.84-1.45,2.64-.07,5.29.08,7.93.25,1.28.08,2.26,0,3.17-1.2.55-.72,1.83-.88,2.79-1.3Z"/>
        <path class="cls-28" d="m205.41,246.4c-.27-4.2.57-5.11,4.75-5.17,1.38.95,2.86,1.8,4.1,2.91.44.39.54,1.51.33,2.14-.13.38-1.2.38-1.76.71-2.63,1.55-4.92-.83-7.42-.6Z"/>
        <path class="cls-35" d="m201.5,248.57c.87-.57,1.74-1.14,2.61-1.71,3.18-.53,5.01,1.05,6.05,3.86-.61.43-1.18.97-1.85,1.26-.93.41-1.94.64-2.92.95-.16-.15-.33-.3-.49-.45-.8-.77-1.63-1.51-2.37-2.33-.42-.46-.69-1.05-1.03-1.58Z"/>
        <path class="cls-8" d="m213.17,271.01c-.6-.14-1.2-.28-1.8-.42-.92-.58-1.6-.64-2.65.15-.92.69-2.43.6-3.95.41,1.14-.72,2.28-1.44,3.66-2.3-1.46-.98-2.47-1.66-3.48-2.35l.33-.49c2.63,1.67,6.05,2.02,7.9,5Z"/>
        <path class="cls-4" d="m205.39,252.94c.98-.31,1.99-.54,2.92-.95.67-.3,1.23-.83,1.85-1.26,1.6-.44,3.19-.87,4.55-1.24-2.14,3.91-6.34,5.58-9.32,3.46Z"/>
        <path class="cls-23" d="m341.35,258.94c-4.31-4.24-10.02-4.89-15.53-6.05-.57-.52-1.14-1.05-2.02-1.86,1.83-.43,3.37-.94,4.94-1.11,2.49-.27,3.32-1.25,2.44-3.69-.83-2.29-2-4.45-2.97-6.69-.43-.98-.74-2.02-1.1-3.03.36-.46.72-.93,1.08-1.39.38.47.85.89,1.13,1.42.78,1.51,1.34,3.15,2.26,4.57.75,1.16,1.77,1.14,2.44-.27,5.63-1.81,11.28-3.56,16.88-5.45,2.76-.93,5.44-2.11,8.15-3.18,1.11.14,2.22.28,3.32.43,2.92.41,5.84.83,8.77,1.25-3.88-.08-7.47.87-10.93,2.66-5.02,2.59-10.16,4.95-15.23,7.46-1.77.87-3.47,1.88-5.2,2.83.03.18.05.37.08.55,2.37.27,4.74.54,7.11.81.88.14,1.79.2,2.65.43,1.3.36,2.56.84,3.84,1.27-1.01,0-2.02.1-3.02-.01-4.34-.51-6.8,2.18-8.77,5.37-.58.94-.22,2.46-.3,3.71Z"/>
        <path class="cls-31" d="m294.74,233.48c4.85.25,9.7.54,14.55.72,1.42.05,2.86-.2,4.29-.29,3.29-.21,6.58-.44,9.88-.57.58-.02,1.18.4,1.78.61-.41.58-.71,1.47-1.26,1.68-.81.3-1.91.4-2.7.1-4.14-1.55-8.42-1.02-12.58-.63-1.92.18-3.89,1.77-5.47,3.15-2.76,2.4-5.25,5.11-7.82,7.73-2.84,2.9-6.23,4.28-10.31,3.88-3.12-.31-5.92-1.46-9.06-3.22.97-.64,1.54-1.11,2.19-1.44,2.49-1.28,5.09-2.39,7.5-3.81,2.19-1.29,4.2-2.88,6.22-4.43.14-.11-.21-1.38-.54-1.49-1.15-.38-2.38-.48-3.58-.68-3.88-1.16-7.75-2.31-11.63-3.47.86-.15,1.73-.29,2.59-.44,1.27.11,2.56.13,3.81.35,4.06.71,8.1,1.5,12.15,2.26Z"/>
        <path class="cls-23" d="m259.77,234.35c-2.46-.13-3.81-1.86-5-3.66-.25-.39-.02-1.48.37-1.84,1.97-1.83,3.93-3.74,6.16-5.23,4.01-2.67,8.62-3.71,13.33-4.29.08.17.16.35.25.52-.7.34-1.44.62-2.09,1.03-1.75,1.09-3.59,2.1-5.17,3.42-1.03.86-1.21,2.09.68,2.36,1.54.22,3.18.77,4.61.44,4.52-1.06,8.69-.28,12.77,1.64-.64.54-1.3,1.58-1.9,1.55-2.9-.16-5.79-.56-8.66-.99-1.39-.21-2.93-1.26-4.07-.89-2.01.65-3.82,1.83-6.08,1.29-.27-.06-.7.2-.94.43-1.43,1.38-2.83,2.8-4.24,4.21Z"/>
        <path class="cls-39" d="m259.77,234.35c1.41-1.41,2.81-2.82,4.24-4.21.24-.23.67-.5.94-.43,2.27.54,4.07-.64,6.08-1.29,1.14-.37,2.68.68,4.07.89,2.87.43,5.76.82,8.66.99.6.03,1.27-1,1.9-1.55,3.02,1.58,6.05,3.17,9.07,4.75-4.05-.76-8.09-1.55-12.15-2.26-1.25-.22-2.54-.24-3.81-.35-2.5,0-5,0-7.5,0,0,.15,0,.29.01.44h4.9c3.88,1.16,7.75,2.31,11.63,3.47-.29.86-.57,1.72-.86,2.58-.85,0-1.71.02-2.56.02-.73-.29-1.45-.59-2.18-.88-2.86-1.99-5.94-3.27-9.51-3.04.41-.21.83-.42,1.24-.63-3.79.45-7.73-.49-11.88,1.52,1.16.62,1.81.96,2.45,1.3-.72-.09-1.47-.08-2.16-.28-.88-.26-1.72-.68-2.58-1.03h0Z"/>
        <path class="cls-23" d="m282.22,236.5c.73.29,1.45.59,2.18.88-2.27,2.75-5.39,4.08-8.65,5.16-2.25-.23-4.67.14-6.47-1.75-1.6-4.24-.78-6.23,3.03-7.28.07,3.9,2.4,5.78,6.86,5.58,1.73-.08,2.86-.75,3.06-2.59Z"/>
        <path class="cls-21" d="m272.3,233.51c-3.8,1.05-4.63,3.04-3.03,7.28-.73-.57-1.47-1.14-2.2-1.71,0-1.12.14-2.28-.1-3.35-.05-.2-1.6-.06-2.46-.08-.65-.34-1.29-.68-2.45-1.3,4.15-2.01,8.1-1.07,11.88-1.52-.41.21-.83.42-1.24.63-.13.01-.27.03-.4.05Z"/>
        <path class="cls-31" d="m275.75,242.54c3.26-1.08,6.38-2.4,8.65-5.16.85,0,1.71-.02,2.56-.02-.04.31.03.82-.14.91-3,1.63-6,3.27-9.08,4.75-.48.23-1.32-.3-2-.48Z"/>
        <path class="cls-23" d="m264.52,235.66c.86.02,2.42-.12,2.46.08.24,1.07.11,2.22.1,3.35-.31-.82-.63-1.63-1.18-3.06-.67.99-1.17,1.73-1.67,2.47-.13.21-.25.43-.38.64-1.36-1.6-2.71-3.2-4.07-4.8.86.35,1.69.78,2.58,1.03.69.2,1.44.19,2.16.28Z"/>
        <path class="cls-34" d="m384.51,356.44c-4.54,1.27-9.07,2.55-13.61,3.81-3.23.9-6.46,1.78-9.7,2.67-2.99.73-6.01,1.36-8.96,2.23-1.98.59-3.63.49-5.52-.54-4.59-2.51-9.34-4.71-13.99-7.11-.88-.45-1.58-1.26-2.36-1.91l.2-.76c2.8-.33,5.61-.55,8.39-1,6.05-.97,12.22-1.58,18.04-3.33,2.37-.71,3.96-4.01,5.91-6.14,6.82,3.7,13.64,7.39,20.44,11.11.43.23.76.64,1.14.96Z"/>
        <path class="cls-1" d="m369.86,329.31c-4.32-2.96-8.65-5.9-12.95-8.87-1.52-1.05-2.99-2.19-4.64-3.4.45-.51.69-.96,1.07-1.19,3.19-1.94,6.35-3.94,9.64-5.7.88-.47,2.24-.47,3.25-.2,2.21.58,4.34,1.52,6.52,2.22.71.23,1.51.2,2.27.28,2.2-.72,3.76.19,5.14,1.86.76.92,1.74,1.64,2.63,2.45-4.31,4.18-8.62,8.37-12.93,12.55Z"/>
        <path class="cls-24" d="m382.78,316.75c-.88-.81-1.87-1.53-2.63-2.45-1.38-1.67-2.94-2.58-5.14-1.86.1-.96.34-1.8,1.59-1.24,1.36.61,2.03-.17,2.86-1.09,1.86-2.07,1.87-4.7,2.44-7.17,2.31,2.02,4.63,4.05,6.94,6.07-2.02,2.58-4.04,5.16-6.06,7.74Z"/>
        <path class="cls-34" d="m369.41,337.04c-2.17,2.15-4.33,4.3-6.5,6.45-1.28-1.89-.67-3.58,1.05-4.54,1.65-.93,3.62-1.3,5.44-1.91Z"/>
        <path class="cls-40" d="m378.9,286.13c-1.15,4.14-2.31,8.29-3.46,12.43-.41,1.49-1.41,1.34-2.55,1.01-7.57-2.24-15.14-4.47-22.71-6.7-2.27-.67-4.56-1.28-6.81-2.02-.86-.28-1.62-.83-2.43-1.26,3.77-2.84,7.66-5.54,11.26-8.57,3.49-2.95,6.68-6.25,10.18-9.56,1.06.77,2.31,1.68,3.56,2.58,3.6,3.17,7.22,6.31,10.78,9.51.83.74,1.45,1.71,2.17,2.57Z"/>
        <path class="cls-40" d="m359.04,232.18c-2.71,1.07-5.39,2.25-8.15,3.18-5.6,1.89-11.25,3.64-16.88,5.45-.71-.13-1.66.11-1.37-1.24.61-2.87,1.16-5.76,1.68-8.66.27-1.53,1.14-2.32,2.58-2.82,4.65-1.59,9.43-1.68,14.26-1.42,1.77.1,3.57,0,5.32.23,3.96.53,4.51,1.74,2.56,5.27Z"/>
        <path class="cls-30" d="m353.44,249.87c-1.28-.43-2.54-.91-3.84-1.27-.86-.24-1.76-.3-2.65-.43,1.31-1.07,2.48-2.39,3.94-3.15,5.18-2.67,10.38-6.13,16.52-4.35,4.44,1.29,7.05-1.7,10.34-3.15.31-.14.19-1.23.27-1.87,1.3-.29,2.59-.58,3.89-.87.43.43.86.87,1.29,1.3-.14,1.01-.28,2.02-.41,3.02-.73.29-1.45.57-2.18.86-1.07.1-2.2-.01-3.19.32-4.49,1.53-8.94,3.18-13.4,4.8-.09.03-.11.24-.43.98,2.56-.17,4.84-.33,7.11-.48-1.01,1.57-2.03,3.15-3.04,4.72-2.39.14-4.78.32-7.18.42-1.63.07-3.27.02-4.91.02-.72-.29-1.43-.59-2.15-.88Z"/>
        <path class="cls-2" d="m378.02,235.64c-.08.65.04,1.74-.27,1.87-3.29,1.46-5.9,4.44-10.34,3.15-6.14-1.78-11.34,1.68-16.52,4.35-1.47.76-2.64,2.08-3.94,3.15-2.37-.27-4.74-.54-7.11-.81-.03-.18-.05-.37-.08-.55,1.73-.95,3.43-1.95,5.2-2.83,5.07-2.5,10.21-4.86,15.23-7.46,3.46-1.79,7.05-2.73,10.93-2.66,1.29.16,2.59.33,3.88.49,1,.43,2.01.86,3.01,1.29Z"/>
        <path class="cls-23" d="m378.02,235.64c-1-.43-2.01-.86-3.01-1.29-.13-.61-.26-1.22-.44-2.02,2.99-.39,5.3.6,7.35,2.43-1.3.29-2.59.58-3.89.87Z"/>
        <path class="cls-29" d="m253.75,293.45c1.72,1.87,3.44,3.74,5.16,5.61,2.02,4.6,4.03,9.2,6.05,13.8-2.42.14-4.84.38-7.26.41-3.35.05-3.63.19-4.84,3.46-.41-1.11-.97-2.2-1.19-3.35-.55-2.9-1.8-5.35-3.82-7.53-2.86-3.09-5.62-6.28-8.31-9.53-1.78-2.15-1.53-2.8,1-3.9,1.33-.58,2.93-1,1.42-3.23,4.57.36,8.43,1.59,11.78,4.24Z"/>
        <path class="cls-17" d="m267.13,338.76c-.14.29-.29.58-.43.87-.3-.4-.6-.79-1.09-1.44-.28,1.46-.41,2.53-.7,3.56-1.38,4.86-2.73,9.8-7.28,12.8-1.06.7-2.58.71-3.89,1.03,0-.14,0-.29,0-.43,1.01-.72,2.01-1.44,3.02-2.16,2.3-.71,3.85-2.24,4.57-4.49,1.02-3.2,1.42-6.45,1.7-9.85.4-5.01,1.2-9.95.9-15.03-.08-1.41,1.24-2.9,1.92-4.36.23.02.46.04.7.06.25.68.55,1.34.75,2.03.45,1.59,1.06,3.17,1.22,4.79.13,1.33-.3,2.71-.48,4.07-.09.68-.48,1.48-.26,2.03.55,1.35.38,2.29-.77,3.2-1.38,1.1-.12,2.21.14,3.31Z"/>
        <path class="cls-9" d="m252.87,316.74c1.2-3.27,1.49-3.41,4.84-3.46,2.42-.04,4.84-.27,7.26-.41-.11.75.02,1.68-.38,2.22-.86,1.18-1.96,2.2-3.01,3.23-.49.48-1.07,1.17-1.66,1.21-2.63.21-5.31,1.35-7.9-.17.28-.87.57-1.74.85-2.61Z"/>
        <path class="cls-2" d="m367.67,250.3c1.01-1.57,2.03-3.15,3.04-4.72,3.9-.81,7.73-1.77,9.9-5.62.73-.29,1.45-.58,2.18-.86,0,.28,0,.57,0,.85-1.78,4.17-4.7,7.29-8.64,9.49-1.16.29-2.31.57-3.47.86-1,0-2,0-3,0Z"/>
        <path class="cls-37" d="m347.8,264.58c-1.01-1.17-1.92-2.46-3.06-3.49-1.68-1.51-2.25-4.02-1.22-6.45,1.07-2.52,2.86-3.6,5.37-3.22.35.05.72.18,1.06.13,4.24-.62,7.65,1.44,11.07,3.43,2.17,1.26,4.41,2.44,6.41,3.93.91.67,1.32,2.01,1.96,3.04-6.94,8.49-15.55,15.11-24.25,21.63-1.02.77-1.96,1.64-2.94,2.47-5.32,1.89-10.64,3.79-15.96,5.68-.43-.9-1.16-1.78-1.24-2.72-.35-4.21-.47-8.43-.78-12.65-.13-1.68.97-2.04,2.15-2.46,6.55-2.33,13.12-4.64,19.66-7.01.87-.31,2.41-.22,1.83-1.97-.03-.12-.05-.24-.06-.36Z"/>
        <path class="cls-32" d="m372.85,260.66c2.98.32,2.99,2.54,3.02,4.74-1.28-.16-2.56-.31-3.55-.43.21-1.7.37-3,.53-4.3Z"/>
        <path class="cls-24" d="m374.14,249.44c3.94-2.19,6.86-5.32,8.64-9.49,3.07,1.34,6.16,2.64,9.17,4.08.3.14.39,1.64.17,1.77-1.53.87-3.11,1.92-4.79,2.19-4.37.68-8.79.99-13.19,1.45Z"/>
        <path class="cls-32" d="m261.03,353.4c1.6-.44,2.13.35,2.04,1.8-.31,5-4.32,9.58-9.24,10.49-3.36.62-6.84.89-9.6,3.27-.14,0-.29.01-.43.02-.15-.44-.3-.89-.45-1.33.15-.14.29-.28.44-.42.72-.43,1.44-.87,2.16-1.3.4-.49.8-.98,1.48-1.82-1.71-.23-2.92-.26-4.06-.57-2.61-.71-5.18-1.55-7.77-2.34-.45-.38-.9-.76-1.35-1.13.31-.2.62-.41.93-.61,1.31.12,2.63.25,3.94.37,1.86-.12,3.72-.26,5.58-.37,6.06-.34,11.81-1.53,16.32-6.05Z"/>
        <path class="cls-11" d="m250.71,371.11c1.37-.61,2.74-1.23,4.12-1.83,3.53-1.53,7.02-3.13,10.62-4.48.74-.28,2.14.15,2.72.75,1.38,1.41,1.65,3.34.41,4.91-.93,1.18-2.28,2.39-3.67,2.8-4.1,1.21-8.31,2.06-12.5,2.98-1.25.28-2.56.32-3.84.46-1.45-1.71-.7-3.24.42-4.72.57-.29,1.15-.58,1.72-.88Z"/>
        <path class="cls-18" d="m243.36,367.64c.15.44.3.89.45,1.33-1.01.25-2.02.51-3.03.76-.11-.33-.21-.67-.32-1,.97-.36,1.93-.72,2.9-1.08Z"/>
        <path class="cls-18" d="m235.61,361.19c2.59.79,5.16,1.63,7.77,2.34,1.14.31,2.35.34,4.06.57-.69.84-1.08,1.33-1.48,1.82-2.84-1.24-5.69-2.48-8.53-3.74-.63-.28-1.22-.66-1.82-1Z"/>
        <path class="cls-7" d="m261.03,353.4c-4.51,4.52-10.26,5.71-16.32,6.05-1.86.1-3.72.25-5.58.37.77-.26,1.51-.67,2.3-.77,4.28-.53,8.53-1.14,12.31-3.47,1.31-.32,2.83-.33,3.89-1.03,4.55-3,5.9-7.94,7.28-12.8.29-1.03.42-2.1.7-3.56.49.64.79,1.04,1.09,1.44-1.89,4.59-3.78,9.18-5.67,13.77Z"/>
        <path class="cls-1" d="m362.92,301.89c-1.03.89-1.9,1.61-2.73,2.36-6.29,5.67-12.61,11.32-18.82,17.07-1.22,1.13-2.1,1.34-3.51.41-6.84-4.51-13.73-8.94-20.6-13.41-.35-.23-.63-.55-1.17-1.03.97-.8,1.81-1.52,2.69-2.21.57-.44,1.26-.74,1.76-1.24,4.95-4.87,11.26-6.66,17.81-7.89.97-.18,2.05-.4,2.97-.16,6.89,1.76,13.76,3.62,20.63,5.46.19.05.35.23.95.64Z"/>
        <path class="cls-10" d="m308.53,330.13c-4.53,2.82-13.16,5.15-16.12,1.56,3.1-1.12,6.16-1.11,9.21-1.15,2.3-.14,4.61-.27,6.91-.41Z"/>
        <path class="cls-26" d="m347.8,264.58c.02.12.04.24.06.36-2.69,1.11-5.36,2.29-8.09,3.33-4.87,1.86-9.77,3.66-14.68,5.42-.54.19-1.25-.05-1.87-.09,8.19-3.01,16.39-6.02,24.58-9.02Z"/>
        <path class="cls-40" d="m276.19,231.31h-4.9c0-.15,0-.29-.01-.44,2.5,0,5,0,7.5,0-.86.15-1.73.29-2.59.44Z"/>
        <path class="cls-40" d="m272.3,233.51c.13-.02.27-.04.4-.05,3.57-.24,6.65,1.05,9.51,3.04-.19,1.84-1.33,2.52-3.06,2.59-4.46.19-6.79-1.68-6.86-5.58Z"/>
        <path class="cls-1" d="m380.61,239.96c-2.18,3.86-6,4.81-9.9,5.62-2.27.15-4.55.31-7.11.48.32-.74.34-.95.43-.98,4.46-1.62,8.91-3.27,13.4-4.8.98-.34,2.12-.23,3.19-.32Z"/>
      </g>
    </g>
  </g>
</svg>